<mxfile host="app.diagrams.net" modified="2022-03-04T03:14:30.322Z" agent="5.0 (Windows)" etag="BAPD3o7ZUgN6SY5xmMHN" version="16.6.5" type="github" pages="4">
  <diagram id="R2lEEEUBdFMjLlhIrx00" name="Diagrama relacional">
    <mxGraphModel dx="1422" dy="752" grid="1" gridSize="10" guides="1" tooltips="1" connect="1" arrows="1" fold="1" page="1" pageScale="1" pageWidth="850" pageHeight="1100" math="0" shadow="0" extFonts="Permanent Marker^https://fonts.googleapis.com/css?family=Permanent+Marker">
      <root>
        <mxCell id="0" />
        <mxCell id="1" parent="0" />
        <mxCell id="C-vyLk0tnHw3VtMMgP7b-1" value="" style="edgeStyle=entityRelationEdgeStyle;endArrow=ERzeroToMany;startArrow=ERone;endFill=1;startFill=0;" parent="1" source="C-vyLk0tnHw3VtMMgP7b-24" target="C-vyLk0tnHw3VtMMgP7b-6" edge="1">
          <mxGeometry width="100" height="100" relative="1" as="geometry">
            <mxPoint x="340" y="720" as="sourcePoint" />
            <mxPoint x="440" y="620" as="targetPoint" />
          </mxGeometry>
        </mxCell>
        <mxCell id="C-vyLk0tnHw3VtMMgP7b-12" value="" style="edgeStyle=entityRelationEdgeStyle;endArrow=ERzeroToMany;startArrow=ERone;endFill=1;startFill=0;" parent="1" source="C-vyLk0tnHw3VtMMgP7b-3" target="C-vyLk0tnHw3VtMMgP7b-17" edge="1">
          <mxGeometry width="100" height="100" relative="1" as="geometry">
            <mxPoint x="400" y="180" as="sourcePoint" />
            <mxPoint x="460" y="205" as="targetPoint" />
          </mxGeometry>
        </mxCell>
        <mxCell id="C-vyLk0tnHw3VtMMgP7b-2" value="Usuario_Rol" style="shape=table;startSize=30;container=1;collapsible=1;childLayout=tableLayout;fixedRows=1;rowLines=0;fontStyle=1;align=center;resizeLast=1;" parent="1" vertex="1">
          <mxGeometry x="510" y="120" width="250" height="130" as="geometry" />
        </mxCell>
        <mxCell id="C-vyLk0tnHw3VtMMgP7b-3" value="" style="shape=partialRectangle;collapsible=0;dropTarget=0;pointerEvents=0;fillColor=none;points=[[0,0.5],[1,0.5]];portConstraint=eastwest;top=0;left=0;right=0;bottom=1;" parent="C-vyLk0tnHw3VtMMgP7b-2" vertex="1">
          <mxGeometry y="30" width="250" height="30" as="geometry" />
        </mxCell>
        <mxCell id="C-vyLk0tnHw3VtMMgP7b-4" value="PK" style="shape=partialRectangle;overflow=hidden;connectable=0;fillColor=none;top=0;left=0;bottom=0;right=0;fontStyle=1;" parent="C-vyLk0tnHw3VtMMgP7b-3" vertex="1">
          <mxGeometry width="30" height="30" as="geometry">
            <mxRectangle width="30" height="30" as="alternateBounds" />
          </mxGeometry>
        </mxCell>
        <mxCell id="C-vyLk0tnHw3VtMMgP7b-5" value="order_id int NOT NULL " style="shape=partialRectangle;overflow=hidden;connectable=0;fillColor=none;top=0;left=0;bottom=0;right=0;align=left;spacingLeft=6;fontStyle=5;" parent="C-vyLk0tnHw3VtMMgP7b-3" vertex="1">
          <mxGeometry x="30" width="220" height="30" as="geometry">
            <mxRectangle width="220" height="30" as="alternateBounds" />
          </mxGeometry>
        </mxCell>
        <mxCell id="C-vyLk0tnHw3VtMMgP7b-6" value="" style="shape=partialRectangle;collapsible=0;dropTarget=0;pointerEvents=0;fillColor=none;points=[[0,0.5],[1,0.5]];portConstraint=eastwest;top=0;left=0;right=0;bottom=0;" parent="C-vyLk0tnHw3VtMMgP7b-2" vertex="1">
          <mxGeometry y="60" width="250" height="30" as="geometry" />
        </mxCell>
        <mxCell id="C-vyLk0tnHw3VtMMgP7b-7" value="FK1" style="shape=partialRectangle;overflow=hidden;connectable=0;fillColor=none;top=0;left=0;bottom=0;right=0;" parent="C-vyLk0tnHw3VtMMgP7b-6" vertex="1">
          <mxGeometry width="30" height="30" as="geometry">
            <mxRectangle width="30" height="30" as="alternateBounds" />
          </mxGeometry>
        </mxCell>
        <mxCell id="C-vyLk0tnHw3VtMMgP7b-8" value="customer_id int NOT NULL" style="shape=partialRectangle;overflow=hidden;connectable=0;fillColor=none;top=0;left=0;bottom=0;right=0;align=left;spacingLeft=6;" parent="C-vyLk0tnHw3VtMMgP7b-6" vertex="1">
          <mxGeometry x="30" width="220" height="30" as="geometry">
            <mxRectangle width="220" height="30" as="alternateBounds" />
          </mxGeometry>
        </mxCell>
        <mxCell id="C-vyLk0tnHw3VtMMgP7b-9" value="" style="shape=partialRectangle;collapsible=0;dropTarget=0;pointerEvents=0;fillColor=none;points=[[0,0.5],[1,0.5]];portConstraint=eastwest;top=0;left=0;right=0;bottom=0;" parent="C-vyLk0tnHw3VtMMgP7b-2" vertex="1">
          <mxGeometry y="90" width="250" height="30" as="geometry" />
        </mxCell>
        <mxCell id="C-vyLk0tnHw3VtMMgP7b-10" value="" style="shape=partialRectangle;overflow=hidden;connectable=0;fillColor=none;top=0;left=0;bottom=0;right=0;" parent="C-vyLk0tnHw3VtMMgP7b-9" vertex="1">
          <mxGeometry width="30" height="30" as="geometry">
            <mxRectangle width="30" height="30" as="alternateBounds" />
          </mxGeometry>
        </mxCell>
        <mxCell id="C-vyLk0tnHw3VtMMgP7b-11" value="order_date date NOT NULL" style="shape=partialRectangle;overflow=hidden;connectable=0;fillColor=none;top=0;left=0;bottom=0;right=0;align=left;spacingLeft=6;" parent="C-vyLk0tnHw3VtMMgP7b-9" vertex="1">
          <mxGeometry x="30" width="220" height="30" as="geometry">
            <mxRectangle width="220" height="30" as="alternateBounds" />
          </mxGeometry>
        </mxCell>
        <mxCell id="C-vyLk0tnHw3VtMMgP7b-13" value="Rol" style="shape=table;startSize=30;container=1;collapsible=1;childLayout=tableLayout;fixedRows=1;rowLines=0;fontStyle=1;align=center;resizeLast=1;" parent="1" vertex="1">
          <mxGeometry x="890" y="105" width="250" height="130" as="geometry" />
        </mxCell>
        <mxCell id="C-vyLk0tnHw3VtMMgP7b-14" value="" style="shape=partialRectangle;collapsible=0;dropTarget=0;pointerEvents=0;fillColor=none;points=[[0,0.5],[1,0.5]];portConstraint=eastwest;top=0;left=0;right=0;bottom=1;" parent="C-vyLk0tnHw3VtMMgP7b-13" vertex="1">
          <mxGeometry y="30" width="250" height="30" as="geometry" />
        </mxCell>
        <mxCell id="C-vyLk0tnHw3VtMMgP7b-15" value="PK" style="shape=partialRectangle;overflow=hidden;connectable=0;fillColor=none;top=0;left=0;bottom=0;right=0;fontStyle=1;" parent="C-vyLk0tnHw3VtMMgP7b-14" vertex="1">
          <mxGeometry width="30" height="30" as="geometry">
            <mxRectangle width="30" height="30" as="alternateBounds" />
          </mxGeometry>
        </mxCell>
        <mxCell id="C-vyLk0tnHw3VtMMgP7b-16" value="shipment_id int NOT NULL " style="shape=partialRectangle;overflow=hidden;connectable=0;fillColor=none;top=0;left=0;bottom=0;right=0;align=left;spacingLeft=6;fontStyle=5;" parent="C-vyLk0tnHw3VtMMgP7b-14" vertex="1">
          <mxGeometry x="30" width="220" height="30" as="geometry">
            <mxRectangle width="220" height="30" as="alternateBounds" />
          </mxGeometry>
        </mxCell>
        <mxCell id="C-vyLk0tnHw3VtMMgP7b-17" value="" style="shape=partialRectangle;collapsible=0;dropTarget=0;pointerEvents=0;fillColor=none;points=[[0,0.5],[1,0.5]];portConstraint=eastwest;top=0;left=0;right=0;bottom=0;" parent="C-vyLk0tnHw3VtMMgP7b-13" vertex="1">
          <mxGeometry y="60" width="250" height="30" as="geometry" />
        </mxCell>
        <mxCell id="C-vyLk0tnHw3VtMMgP7b-18" value="FK1" style="shape=partialRectangle;overflow=hidden;connectable=0;fillColor=none;top=0;left=0;bottom=0;right=0;" parent="C-vyLk0tnHw3VtMMgP7b-17" vertex="1">
          <mxGeometry width="30" height="30" as="geometry">
            <mxRectangle width="30" height="30" as="alternateBounds" />
          </mxGeometry>
        </mxCell>
        <mxCell id="C-vyLk0tnHw3VtMMgP7b-19" value="order_id int NOT NULL" style="shape=partialRectangle;overflow=hidden;connectable=0;fillColor=none;top=0;left=0;bottom=0;right=0;align=left;spacingLeft=6;" parent="C-vyLk0tnHw3VtMMgP7b-17" vertex="1">
          <mxGeometry x="30" width="220" height="30" as="geometry">
            <mxRectangle width="220" height="30" as="alternateBounds" />
          </mxGeometry>
        </mxCell>
        <mxCell id="C-vyLk0tnHw3VtMMgP7b-20" value="" style="shape=partialRectangle;collapsible=0;dropTarget=0;pointerEvents=0;fillColor=none;points=[[0,0.5],[1,0.5]];portConstraint=eastwest;top=0;left=0;right=0;bottom=0;" parent="C-vyLk0tnHw3VtMMgP7b-13" vertex="1">
          <mxGeometry y="90" width="250" height="30" as="geometry" />
        </mxCell>
        <mxCell id="C-vyLk0tnHw3VtMMgP7b-21" value="" style="shape=partialRectangle;overflow=hidden;connectable=0;fillColor=none;top=0;left=0;bottom=0;right=0;" parent="C-vyLk0tnHw3VtMMgP7b-20" vertex="1">
          <mxGeometry width="30" height="30" as="geometry">
            <mxRectangle width="30" height="30" as="alternateBounds" />
          </mxGeometry>
        </mxCell>
        <mxCell id="C-vyLk0tnHw3VtMMgP7b-22" value="shipment_date date NOT NULL" style="shape=partialRectangle;overflow=hidden;connectable=0;fillColor=none;top=0;left=0;bottom=0;right=0;align=left;spacingLeft=6;" parent="C-vyLk0tnHw3VtMMgP7b-20" vertex="1">
          <mxGeometry x="30" width="220" height="30" as="geometry">
            <mxRectangle width="220" height="30" as="alternateBounds" />
          </mxGeometry>
        </mxCell>
        <mxCell id="C-vyLk0tnHw3VtMMgP7b-23" value="Usuario" style="shape=table;startSize=30;container=1;collapsible=1;childLayout=tableLayout;fixedRows=1;rowLines=0;fontStyle=1;align=center;resizeLast=1;" parent="1" vertex="1">
          <mxGeometry x="80" y="120" width="250" height="100" as="geometry" />
        </mxCell>
        <mxCell id="C-vyLk0tnHw3VtMMgP7b-24" value="" style="shape=partialRectangle;collapsible=0;dropTarget=0;pointerEvents=0;fillColor=none;points=[[0,0.5],[1,0.5]];portConstraint=eastwest;top=0;left=0;right=0;bottom=1;" parent="C-vyLk0tnHw3VtMMgP7b-23" vertex="1">
          <mxGeometry y="30" width="250" height="30" as="geometry" />
        </mxCell>
        <mxCell id="C-vyLk0tnHw3VtMMgP7b-25" value="PK" style="shape=partialRectangle;overflow=hidden;connectable=0;fillColor=none;top=0;left=0;bottom=0;right=0;fontStyle=1;" parent="C-vyLk0tnHw3VtMMgP7b-24" vertex="1">
          <mxGeometry width="30" height="30" as="geometry">
            <mxRectangle width="30" height="30" as="alternateBounds" />
          </mxGeometry>
        </mxCell>
        <mxCell id="C-vyLk0tnHw3VtMMgP7b-26" value="customer_id int NOT NULL " style="shape=partialRectangle;overflow=hidden;connectable=0;fillColor=none;top=0;left=0;bottom=0;right=0;align=left;spacingLeft=6;fontStyle=5;" parent="C-vyLk0tnHw3VtMMgP7b-24" vertex="1">
          <mxGeometry x="30" width="220" height="30" as="geometry">
            <mxRectangle width="220" height="30" as="alternateBounds" />
          </mxGeometry>
        </mxCell>
        <mxCell id="C-vyLk0tnHw3VtMMgP7b-27" value="" style="shape=partialRectangle;collapsible=0;dropTarget=0;pointerEvents=0;fillColor=none;points=[[0,0.5],[1,0.5]];portConstraint=eastwest;top=0;left=0;right=0;bottom=0;" parent="C-vyLk0tnHw3VtMMgP7b-23" vertex="1">
          <mxGeometry y="60" width="250" height="30" as="geometry" />
        </mxCell>
        <mxCell id="C-vyLk0tnHw3VtMMgP7b-28" value="" style="shape=partialRectangle;overflow=hidden;connectable=0;fillColor=none;top=0;left=0;bottom=0;right=0;" parent="C-vyLk0tnHw3VtMMgP7b-27" vertex="1">
          <mxGeometry width="30" height="30" as="geometry">
            <mxRectangle width="30" height="30" as="alternateBounds" />
          </mxGeometry>
        </mxCell>
        <mxCell id="C-vyLk0tnHw3VtMMgP7b-29" value="customer_name char(50) NOT NULL" style="shape=partialRectangle;overflow=hidden;connectable=0;fillColor=none;top=0;left=0;bottom=0;right=0;align=left;spacingLeft=6;" parent="C-vyLk0tnHw3VtMMgP7b-27" vertex="1">
          <mxGeometry x="30" width="220" height="30" as="geometry">
            <mxRectangle width="220" height="30" as="alternateBounds" />
          </mxGeometry>
        </mxCell>
      </root>
    </mxGraphModel>
  </diagram>
  <diagram id="NCh4oBmM9APoLs2Gsict" name="Diagrama entidad relacion">
    <mxGraphModel dx="1808" dy="519" grid="1" gridSize="10" guides="1" tooltips="1" connect="1" arrows="1" fold="1" page="1" pageScale="1" pageWidth="827" pageHeight="1169" math="0" shadow="0">
      <root>
        <mxCell id="OC3763Bib24QmHlfgEVo-0" />
        <mxCell id="OC3763Bib24QmHlfgEVo-1" parent="OC3763Bib24QmHlfgEVo-0" />
        <mxCell id="xJ4l-KhMbJF52oL8Yz-a-4" style="edgeStyle=orthogonalEdgeStyle;rounded=0;orthogonalLoop=1;jettySize=auto;html=1;endArrow=none;endFill=0;" edge="1" parent="OC3763Bib24QmHlfgEVo-1" source="xJ4l-KhMbJF52oL8Yz-a-0" target="xJ4l-KhMbJF52oL8Yz-a-3">
          <mxGeometry relative="1" as="geometry" />
        </mxCell>
        <mxCell id="xJ4l-KhMbJF52oL8Yz-a-8" style="edgeStyle=orthogonalEdgeStyle;rounded=0;orthogonalLoop=1;jettySize=auto;html=1;endArrow=none;endFill=0;" edge="1" parent="OC3763Bib24QmHlfgEVo-1" source="xJ4l-KhMbJF52oL8Yz-a-0" target="xJ4l-KhMbJF52oL8Yz-a-6">
          <mxGeometry relative="1" as="geometry" />
        </mxCell>
        <mxCell id="xJ4l-KhMbJF52oL8Yz-a-0" value="Usuario" style="whiteSpace=wrap;html=1;align=center;" vertex="1" parent="OC3763Bib24QmHlfgEVo-1">
          <mxGeometry x="360" y="280" width="100" height="40" as="geometry" />
        </mxCell>
        <mxCell id="xJ4l-KhMbJF52oL8Yz-a-1" value="Rol" style="whiteSpace=wrap;html=1;align=center;" vertex="1" parent="OC3763Bib24QmHlfgEVo-1">
          <mxGeometry x="-130" y="280" width="100" height="40" as="geometry" />
        </mxCell>
        <mxCell id="xJ4l-KhMbJF52oL8Yz-a-55" style="edgeStyle=none;rounded=0;orthogonalLoop=1;jettySize=auto;html=1;fontSize=12;endArrow=none;endFill=0;" edge="1" parent="OC3763Bib24QmHlfgEVo-1" source="xJ4l-KhMbJF52oL8Yz-a-2" target="xJ4l-KhMbJF52oL8Yz-a-46">
          <mxGeometry relative="1" as="geometry" />
        </mxCell>
        <mxCell id="xJ4l-KhMbJF52oL8Yz-a-56" style="edgeStyle=none;rounded=0;orthogonalLoop=1;jettySize=auto;html=1;fontSize=12;endArrow=none;endFill=0;" edge="1" parent="OC3763Bib24QmHlfgEVo-1" source="xJ4l-KhMbJF52oL8Yz-a-2" target="xJ4l-KhMbJF52oL8Yz-a-39">
          <mxGeometry relative="1" as="geometry" />
        </mxCell>
        <mxCell id="xJ4l-KhMbJF52oL8Yz-a-57" style="edgeStyle=none;rounded=0;orthogonalLoop=1;jettySize=auto;html=1;fontSize=12;endArrow=none;endFill=0;" edge="1" parent="OC3763Bib24QmHlfgEVo-1" source="xJ4l-KhMbJF52oL8Yz-a-2" target="xJ4l-KhMbJF52oL8Yz-a-44">
          <mxGeometry relative="1" as="geometry" />
        </mxCell>
        <mxCell id="xJ4l-KhMbJF52oL8Yz-a-58" style="edgeStyle=none;rounded=0;orthogonalLoop=1;jettySize=auto;html=1;fontSize=12;endArrow=none;endFill=0;" edge="1" parent="OC3763Bib24QmHlfgEVo-1" source="xJ4l-KhMbJF52oL8Yz-a-2" target="xJ4l-KhMbJF52oL8Yz-a-53">
          <mxGeometry relative="1" as="geometry" />
        </mxCell>
        <mxCell id="xJ4l-KhMbJF52oL8Yz-a-59" style="edgeStyle=none;rounded=0;orthogonalLoop=1;jettySize=auto;html=1;fontSize=12;endArrow=none;endFill=0;" edge="1" parent="OC3763Bib24QmHlfgEVo-1" source="xJ4l-KhMbJF52oL8Yz-a-2" target="xJ4l-KhMbJF52oL8Yz-a-23">
          <mxGeometry relative="1" as="geometry" />
        </mxCell>
        <mxCell id="xJ4l-KhMbJF52oL8Yz-a-60" style="edgeStyle=none;rounded=0;orthogonalLoop=1;jettySize=auto;html=1;fontSize=12;endArrow=none;endFill=0;" edge="1" parent="OC3763Bib24QmHlfgEVo-1" source="xJ4l-KhMbJF52oL8Yz-a-2" target="xJ4l-KhMbJF52oL8Yz-a-25">
          <mxGeometry relative="1" as="geometry" />
        </mxCell>
        <mxCell id="xJ4l-KhMbJF52oL8Yz-a-61" style="edgeStyle=none;rounded=0;orthogonalLoop=1;jettySize=auto;html=1;fontSize=12;endArrow=none;endFill=0;" edge="1" parent="OC3763Bib24QmHlfgEVo-1" source="xJ4l-KhMbJF52oL8Yz-a-2" target="xJ4l-KhMbJF52oL8Yz-a-41">
          <mxGeometry relative="1" as="geometry" />
        </mxCell>
        <mxCell id="xJ4l-KhMbJF52oL8Yz-a-62" style="edgeStyle=none;rounded=0;orthogonalLoop=1;jettySize=auto;html=1;fontSize=12;endArrow=none;endFill=0;" edge="1" parent="OC3763Bib24QmHlfgEVo-1" source="xJ4l-KhMbJF52oL8Yz-a-2" target="xJ4l-KhMbJF52oL8Yz-a-51">
          <mxGeometry relative="1" as="geometry" />
        </mxCell>
        <mxCell id="xJ4l-KhMbJF52oL8Yz-a-63" style="edgeStyle=none;rounded=0;orthogonalLoop=1;jettySize=auto;html=1;fontSize=12;endArrow=none;endFill=0;" edge="1" parent="OC3763Bib24QmHlfgEVo-1" source="xJ4l-KhMbJF52oL8Yz-a-2" target="xJ4l-KhMbJF52oL8Yz-a-47">
          <mxGeometry relative="1" as="geometry" />
        </mxCell>
        <mxCell id="xJ4l-KhMbJF52oL8Yz-a-64" style="edgeStyle=none;rounded=0;orthogonalLoop=1;jettySize=auto;html=1;fontSize=12;endArrow=none;endFill=0;" edge="1" parent="OC3763Bib24QmHlfgEVo-1" source="xJ4l-KhMbJF52oL8Yz-a-2" target="xJ4l-KhMbJF52oL8Yz-a-48">
          <mxGeometry relative="1" as="geometry" />
        </mxCell>
        <mxCell id="xJ4l-KhMbJF52oL8Yz-a-65" style="edgeStyle=none;rounded=0;orthogonalLoop=1;jettySize=auto;html=1;fontSize=12;endArrow=none;endFill=0;" edge="1" parent="OC3763Bib24QmHlfgEVo-1" source="xJ4l-KhMbJF52oL8Yz-a-2" target="xJ4l-KhMbJF52oL8Yz-a-49">
          <mxGeometry relative="1" as="geometry" />
        </mxCell>
        <mxCell id="xJ4l-KhMbJF52oL8Yz-a-79" style="edgeStyle=none;rounded=0;orthogonalLoop=1;jettySize=auto;html=1;fontSize=12;endArrow=none;endFill=0;" edge="1" parent="OC3763Bib24QmHlfgEVo-1" source="xJ4l-KhMbJF52oL8Yz-a-2" target="xJ4l-KhMbJF52oL8Yz-a-78">
          <mxGeometry relative="1" as="geometry" />
        </mxCell>
        <mxCell id="xJ4l-KhMbJF52oL8Yz-a-2" value="Consultante" style="whiteSpace=wrap;html=1;align=center;" vertex="1" parent="OC3763Bib24QmHlfgEVo-1">
          <mxGeometry x="1000" y="280" width="100" height="40" as="geometry" />
        </mxCell>
        <mxCell id="xJ4l-KhMbJF52oL8Yz-a-5" style="edgeStyle=orthogonalEdgeStyle;rounded=0;orthogonalLoop=1;jettySize=auto;html=1;entryX=1;entryY=0.5;entryDx=0;entryDy=0;endArrow=none;endFill=0;" edge="1" parent="OC3763Bib24QmHlfgEVo-1" source="xJ4l-KhMbJF52oL8Yz-a-3" target="xJ4l-KhMbJF52oL8Yz-a-1">
          <mxGeometry relative="1" as="geometry" />
        </mxCell>
        <mxCell id="xJ4l-KhMbJF52oL8Yz-a-3" value="Tiene" style="shape=rhombus;perimeter=rhombusPerimeter;whiteSpace=wrap;html=1;align=center;" vertex="1" parent="OC3763Bib24QmHlfgEVo-1">
          <mxGeometry x="90" y="270" width="120" height="60" as="geometry" />
        </mxCell>
        <mxCell id="xJ4l-KhMbJF52oL8Yz-a-9" style="edgeStyle=orthogonalEdgeStyle;rounded=0;orthogonalLoop=1;jettySize=auto;html=1;endArrow=none;endFill=0;" edge="1" parent="OC3763Bib24QmHlfgEVo-1" source="xJ4l-KhMbJF52oL8Yz-a-6" target="xJ4l-KhMbJF52oL8Yz-a-2">
          <mxGeometry relative="1" as="geometry" />
        </mxCell>
        <mxCell id="xJ4l-KhMbJF52oL8Yz-a-6" value="Gestiona" style="shape=rhombus;perimeter=rhombusPerimeter;whiteSpace=wrap;html=1;align=center;" vertex="1" parent="OC3763Bib24QmHlfgEVo-1">
          <mxGeometry x="670" y="270" width="120" height="60" as="geometry" />
        </mxCell>
        <mxCell id="xJ4l-KhMbJF52oL8Yz-a-13" style="rounded=0;orthogonalLoop=1;jettySize=auto;html=1;endArrow=none;endFill=0;" edge="1" parent="OC3763Bib24QmHlfgEVo-1" source="xJ4l-KhMbJF52oL8Yz-a-12" target="xJ4l-KhMbJF52oL8Yz-a-1">
          <mxGeometry relative="1" as="geometry" />
        </mxCell>
        <mxCell id="xJ4l-KhMbJF52oL8Yz-a-12" value="tipo" style="ellipse;whiteSpace=wrap;html=1;align=center;" vertex="1" parent="OC3763Bib24QmHlfgEVo-1">
          <mxGeometry x="-280" y="220" width="100" height="40" as="geometry" />
        </mxCell>
        <mxCell id="xJ4l-KhMbJF52oL8Yz-a-15" style="edgeStyle=none;rounded=0;orthogonalLoop=1;jettySize=auto;html=1;endArrow=none;endFill=0;" edge="1" parent="OC3763Bib24QmHlfgEVo-1" source="xJ4l-KhMbJF52oL8Yz-a-14" target="xJ4l-KhMbJF52oL8Yz-a-1">
          <mxGeometry relative="1" as="geometry" />
        </mxCell>
        <mxCell id="xJ4l-KhMbJF52oL8Yz-a-14" value="id" style="ellipse;whiteSpace=wrap;html=1;align=center;fontStyle=4;" vertex="1" parent="OC3763Bib24QmHlfgEVo-1">
          <mxGeometry x="-280" y="350" width="100" height="40" as="geometry" />
        </mxCell>
        <mxCell id="xJ4l-KhMbJF52oL8Yz-a-38" style="edgeStyle=none;rounded=0;orthogonalLoop=1;jettySize=auto;html=1;endArrow=none;endFill=0;" edge="1" parent="OC3763Bib24QmHlfgEVo-1" source="xJ4l-KhMbJF52oL8Yz-a-16" target="xJ4l-KhMbJF52oL8Yz-a-0">
          <mxGeometry relative="1" as="geometry" />
        </mxCell>
        <mxCell id="xJ4l-KhMbJF52oL8Yz-a-16" value="reTHUS" style="ellipse;whiteSpace=wrap;html=1;align=center;" vertex="1" parent="OC3763Bib24QmHlfgEVo-1">
          <mxGeometry x="650" y="180" width="100" height="40" as="geometry" />
        </mxCell>
        <mxCell id="xJ4l-KhMbJF52oL8Yz-a-35" style="edgeStyle=none;rounded=0;orthogonalLoop=1;jettySize=auto;html=1;endArrow=none;endFill=0;" edge="1" parent="OC3763Bib24QmHlfgEVo-1" source="xJ4l-KhMbJF52oL8Yz-a-18" target="xJ4l-KhMbJF52oL8Yz-a-0">
          <mxGeometry relative="1" as="geometry" />
        </mxCell>
        <mxCell id="xJ4l-KhMbJF52oL8Yz-a-18" value="correo" style="ellipse;whiteSpace=wrap;html=1;align=center;" vertex="1" parent="OC3763Bib24QmHlfgEVo-1">
          <mxGeometry x="490" y="40" width="100" height="40" as="geometry" />
        </mxCell>
        <mxCell id="xJ4l-KhMbJF52oL8Yz-a-34" style="edgeStyle=none;rounded=0;orthogonalLoop=1;jettySize=auto;html=1;endArrow=none;endFill=0;" edge="1" parent="OC3763Bib24QmHlfgEVo-1" source="xJ4l-KhMbJF52oL8Yz-a-19" target="xJ4l-KhMbJF52oL8Yz-a-0">
          <mxGeometry relative="1" as="geometry" />
        </mxCell>
        <mxCell id="xJ4l-KhMbJF52oL8Yz-a-19" value="apellidos" style="ellipse;whiteSpace=wrap;html=1;align=center;" vertex="1" parent="OC3763Bib24QmHlfgEVo-1">
          <mxGeometry x="380" y="30" width="100" height="40" as="geometry" />
        </mxCell>
        <mxCell id="xJ4l-KhMbJF52oL8Yz-a-33" style="edgeStyle=none;rounded=0;orthogonalLoop=1;jettySize=auto;html=1;endArrow=none;endFill=0;" edge="1" parent="OC3763Bib24QmHlfgEVo-1" source="xJ4l-KhMbJF52oL8Yz-a-20" target="xJ4l-KhMbJF52oL8Yz-a-0">
          <mxGeometry relative="1" as="geometry" />
        </mxCell>
        <mxCell id="xJ4l-KhMbJF52oL8Yz-a-20" value="nombres" style="ellipse;whiteSpace=wrap;html=1;align=center;" vertex="1" parent="OC3763Bib24QmHlfgEVo-1">
          <mxGeometry x="260" y="30" width="100" height="40" as="geometry" />
        </mxCell>
        <mxCell id="xJ4l-KhMbJF52oL8Yz-a-31" style="edgeStyle=none;rounded=0;orthogonalLoop=1;jettySize=auto;html=1;endArrow=none;endFill=0;" edge="1" parent="OC3763Bib24QmHlfgEVo-1" source="xJ4l-KhMbJF52oL8Yz-a-21" target="xJ4l-KhMbJF52oL8Yz-a-0">
          <mxGeometry relative="1" as="geometry" />
        </mxCell>
        <mxCell id="xJ4l-KhMbJF52oL8Yz-a-21" value="login" style="ellipse;whiteSpace=wrap;html=1;align=center;" vertex="1" parent="OC3763Bib24QmHlfgEVo-1">
          <mxGeometry x="120" y="120" width="100" height="40" as="geometry" />
        </mxCell>
        <mxCell id="xJ4l-KhMbJF52oL8Yz-a-32" style="edgeStyle=none;rounded=0;orthogonalLoop=1;jettySize=auto;html=1;endArrow=none;endFill=0;" edge="1" parent="OC3763Bib24QmHlfgEVo-1" source="xJ4l-KhMbJF52oL8Yz-a-22" target="xJ4l-KhMbJF52oL8Yz-a-0">
          <mxGeometry relative="1" as="geometry" />
        </mxCell>
        <mxCell id="xJ4l-KhMbJF52oL8Yz-a-22" value="password" style="ellipse;whiteSpace=wrap;html=1;align=center;" vertex="1" parent="OC3763Bib24QmHlfgEVo-1">
          <mxGeometry x="170" y="70" width="100" height="40" as="geometry" />
        </mxCell>
        <mxCell id="xJ4l-KhMbJF52oL8Yz-a-23" value="apellidos" style="ellipse;whiteSpace=wrap;html=1;align=center;" vertex="1" parent="OC3763Bib24QmHlfgEVo-1">
          <mxGeometry x="1340" y="370" width="100" height="40" as="geometry" />
        </mxCell>
        <mxCell id="xJ4l-KhMbJF52oL8Yz-a-25" value="nombres" style="ellipse;whiteSpace=wrap;html=1;align=center;" vertex="1" parent="OC3763Bib24QmHlfgEVo-1">
          <mxGeometry x="1290" y="410" width="100" height="40" as="geometry" />
        </mxCell>
        <mxCell id="xJ4l-KhMbJF52oL8Yz-a-36" style="edgeStyle=none;rounded=0;orthogonalLoop=1;jettySize=auto;html=1;endArrow=none;endFill=0;" edge="1" parent="OC3763Bib24QmHlfgEVo-1" source="xJ4l-KhMbJF52oL8Yz-a-26" target="xJ4l-KhMbJF52oL8Yz-a-0">
          <mxGeometry relative="1" as="geometry" />
        </mxCell>
        <mxCell id="xJ4l-KhMbJF52oL8Yz-a-26" value="tarjetaProf" style="ellipse;whiteSpace=wrap;html=1;align=center;" vertex="1" parent="OC3763Bib24QmHlfgEVo-1">
          <mxGeometry x="590" y="70" width="100" height="40" as="geometry" />
        </mxCell>
        <mxCell id="xJ4l-KhMbJF52oL8Yz-a-37" style="edgeStyle=none;rounded=0;orthogonalLoop=1;jettySize=auto;html=1;endArrow=none;endFill=0;" edge="1" parent="OC3763Bib24QmHlfgEVo-1" source="xJ4l-KhMbJF52oL8Yz-a-27" target="xJ4l-KhMbJF52oL8Yz-a-0">
          <mxGeometry relative="1" as="geometry" />
        </mxCell>
        <mxCell id="xJ4l-KhMbJF52oL8Yz-a-27" value="telefono" style="ellipse;whiteSpace=wrap;html=1;align=center;" vertex="1" parent="OC3763Bib24QmHlfgEVo-1">
          <mxGeometry x="640" y="120" width="100" height="40" as="geometry" />
        </mxCell>
        <mxCell id="xJ4l-KhMbJF52oL8Yz-a-30" style="edgeStyle=none;rounded=0;orthogonalLoop=1;jettySize=auto;html=1;endArrow=none;endFill=0;" edge="1" parent="OC3763Bib24QmHlfgEVo-1" source="xJ4l-KhMbJF52oL8Yz-a-29" target="xJ4l-KhMbJF52oL8Yz-a-0">
          <mxGeometry relative="1" as="geometry" />
        </mxCell>
        <mxCell id="xJ4l-KhMbJF52oL8Yz-a-29" value="id" style="ellipse;whiteSpace=wrap;html=1;align=center;fontStyle=4;" vertex="1" parent="OC3763Bib24QmHlfgEVo-1">
          <mxGeometry x="80" y="180" width="100" height="40" as="geometry" />
        </mxCell>
        <mxCell id="xJ4l-KhMbJF52oL8Yz-a-39" value="genero" style="ellipse;whiteSpace=wrap;html=1;align=center;" vertex="1" parent="OC3763Bib24QmHlfgEVo-1">
          <mxGeometry x="1310" y="150" width="100" height="40" as="geometry" />
        </mxCell>
        <mxCell id="xJ4l-KhMbJF52oL8Yz-a-40" value="localidad" style="ellipse;whiteSpace=wrap;html=1;align=center;dashed=1;" vertex="1" parent="OC3763Bib24QmHlfgEVo-1">
          <mxGeometry x="1620" y="250" width="100" height="40" as="geometry" />
        </mxCell>
        <mxCell id="xJ4l-KhMbJF52oL8Yz-a-71" style="edgeStyle=none;rounded=0;orthogonalLoop=1;jettySize=auto;html=1;exitX=0.5;exitY=1;exitDx=0;exitDy=0;fontSize=12;endArrow=none;endFill=0;" edge="1" parent="OC3763Bib24QmHlfgEVo-1" source="xJ4l-KhMbJF52oL8Yz-a-41">
          <mxGeometry relative="1" as="geometry">
            <mxPoint x="1180" y="510" as="targetPoint" />
          </mxGeometry>
        </mxCell>
        <mxCell id="xJ4l-KhMbJF52oL8Yz-a-41" value="tipoDocumento" style="ellipse;align=center;whiteSpace=wrap;html=1;" vertex="1" parent="OC3763Bib24QmHlfgEVo-1">
          <mxGeometry x="1110" y="470" width="100" height="40" as="geometry" />
        </mxCell>
        <mxCell id="xJ4l-KhMbJF52oL8Yz-a-42" value="barrio" style="ellipse;whiteSpace=wrap;html=1;align=center;dashed=1;" vertex="1" parent="OC3763Bib24QmHlfgEVo-1">
          <mxGeometry x="1620" y="330" width="100" height="40" as="geometry" />
        </mxCell>
        <mxCell id="xJ4l-KhMbJF52oL8Yz-a-44" value="fechaNacimiento" style="ellipse;whiteSpace=wrap;html=1;align=center;" vertex="1" parent="OC3763Bib24QmHlfgEVo-1">
          <mxGeometry x="1350" y="250" width="100" height="40" as="geometry" />
        </mxCell>
        <mxCell id="xJ4l-KhMbJF52oL8Yz-a-46" value="sexo" style="ellipse;whiteSpace=wrap;html=1;align=center;" vertex="1" parent="OC3763Bib24QmHlfgEVo-1">
          <mxGeometry x="1080" y="70" width="100" height="40" as="geometry" />
        </mxCell>
        <mxCell id="xJ4l-KhMbJF52oL8Yz-a-47" value="estadoCivil" style="ellipse;whiteSpace=wrap;html=1;align=center;" vertex="1" parent="OC3763Bib24QmHlfgEVo-1">
          <mxGeometry x="970" y="60" width="100" height="40" as="geometry" />
        </mxCell>
        <mxCell id="xJ4l-KhMbJF52oL8Yz-a-48" value="escolaridad" style="ellipse;whiteSpace=wrap;html=1;align=center;" vertex="1" parent="OC3763Bib24QmHlfgEVo-1">
          <mxGeometry x="1180" y="80" width="100" height="40" as="geometry" />
        </mxCell>
        <mxCell id="xJ4l-KhMbJF52oL8Yz-a-49" value="ocupacion" style="ellipse;whiteSpace=wrap;html=1;align=center;" vertex="1" parent="OC3763Bib24QmHlfgEVo-1">
          <mxGeometry x="1330" y="200" width="100" height="40" as="geometry" />
        </mxCell>
        <mxCell id="xJ4l-KhMbJF52oL8Yz-a-51" value="id" style="ellipse;whiteSpace=wrap;html=1;align=center;fontStyle=4;" vertex="1" parent="OC3763Bib24QmHlfgEVo-1">
          <mxGeometry x="990" y="470" width="100" height="40" as="geometry" />
        </mxCell>
        <mxCell id="xJ4l-KhMbJF52oL8Yz-a-52" value="pais" style="ellipse;whiteSpace=wrap;html=1;align=center;dashed=1;" vertex="1" parent="OC3763Bib24QmHlfgEVo-1">
          <mxGeometry x="1620" y="190" width="100" height="40" as="geometry" />
        </mxCell>
        <mxCell id="xJ4l-KhMbJF52oL8Yz-a-66" style="edgeStyle=none;rounded=0;orthogonalLoop=1;jettySize=auto;html=1;entryX=0;entryY=1;entryDx=0;entryDy=0;fontSize=12;endArrow=none;endFill=0;" edge="1" parent="OC3763Bib24QmHlfgEVo-1" source="xJ4l-KhMbJF52oL8Yz-a-53" target="xJ4l-KhMbJF52oL8Yz-a-52">
          <mxGeometry relative="1" as="geometry" />
        </mxCell>
        <mxCell id="xJ4l-KhMbJF52oL8Yz-a-67" style="edgeStyle=none;rounded=0;orthogonalLoop=1;jettySize=auto;html=1;entryX=0.063;entryY=0.742;entryDx=0;entryDy=0;entryPerimeter=0;fontSize=12;endArrow=none;endFill=0;" edge="1" parent="OC3763Bib24QmHlfgEVo-1" source="xJ4l-KhMbJF52oL8Yz-a-53" target="xJ4l-KhMbJF52oL8Yz-a-40">
          <mxGeometry relative="1" as="geometry" />
        </mxCell>
        <mxCell id="xJ4l-KhMbJF52oL8Yz-a-68" style="edgeStyle=none;rounded=0;orthogonalLoop=1;jettySize=auto;html=1;fontSize=12;endArrow=none;endFill=0;" edge="1" parent="OC3763Bib24QmHlfgEVo-1" source="xJ4l-KhMbJF52oL8Yz-a-53" target="xJ4l-KhMbJF52oL8Yz-a-42">
          <mxGeometry relative="1" as="geometry" />
        </mxCell>
        <mxCell id="xJ4l-KhMbJF52oL8Yz-a-69" style="edgeStyle=none;rounded=0;orthogonalLoop=1;jettySize=auto;html=1;fontSize=12;endArrow=none;endFill=0;" edge="1" parent="OC3763Bib24QmHlfgEVo-1" source="xJ4l-KhMbJF52oL8Yz-a-53" target="xJ4l-KhMbJF52oL8Yz-a-54">
          <mxGeometry relative="1" as="geometry" />
        </mxCell>
        <mxCell id="xJ4l-KhMbJF52oL8Yz-a-53" value="direccion" style="ellipse;shape=doubleEllipse;margin=3;whiteSpace=wrap;html=1;align=center;fontSize=12;" vertex="1" parent="OC3763Bib24QmHlfgEVo-1">
          <mxGeometry x="1350" y="310" width="100" height="40" as="geometry" />
        </mxCell>
        <mxCell id="xJ4l-KhMbJF52oL8Yz-a-54" value="ciudad" style="ellipse;whiteSpace=wrap;html=1;align=center;fontSize=12;dashed=1;" vertex="1" parent="OC3763Bib24QmHlfgEVo-1">
          <mxGeometry x="1590" y="400" width="100" height="40" as="geometry" />
        </mxCell>
        <mxCell id="xJ4l-KhMbJF52oL8Yz-a-72" style="edgeStyle=none;rounded=0;orthogonalLoop=1;jettySize=auto;html=1;fontSize=12;endArrow=none;endFill=0;" edge="1" parent="OC3763Bib24QmHlfgEVo-1" source="xJ4l-KhMbJF52oL8Yz-a-74" target="xJ4l-KhMbJF52oL8Yz-a-2">
          <mxGeometry relative="1" as="geometry">
            <mxPoint x="1247.025632435074" y="452.23631373845956" as="sourcePoint" />
          </mxGeometry>
        </mxCell>
        <mxCell id="xJ4l-KhMbJF52oL8Yz-a-73" value="telefonoFijo" style="ellipse;whiteSpace=wrap;html=1;align=center;fontSize=12;dashed=1;" vertex="1" parent="OC3763Bib24QmHlfgEVo-1">
          <mxGeometry x="1270" y="565" width="100" height="40" as="geometry" />
        </mxCell>
        <mxCell id="xJ4l-KhMbJF52oL8Yz-a-76" style="edgeStyle=none;rounded=0;orthogonalLoop=1;jettySize=auto;html=1;fontSize=12;endArrow=none;endFill=0;" edge="1" parent="OC3763Bib24QmHlfgEVo-1" source="xJ4l-KhMbJF52oL8Yz-a-74" target="xJ4l-KhMbJF52oL8Yz-a-73">
          <mxGeometry relative="1" as="geometry" />
        </mxCell>
        <mxCell id="xJ4l-KhMbJF52oL8Yz-a-77" style="edgeStyle=none;rounded=0;orthogonalLoop=1;jettySize=auto;html=1;fontSize=12;endArrow=none;endFill=0;" edge="1" parent="OC3763Bib24QmHlfgEVo-1" source="xJ4l-KhMbJF52oL8Yz-a-74" target="xJ4l-KhMbJF52oL8Yz-a-75">
          <mxGeometry relative="1" as="geometry" />
        </mxCell>
        <mxCell id="xJ4l-KhMbJF52oL8Yz-a-74" value="numeroContacto" style="ellipse;shape=doubleEllipse;margin=3;whiteSpace=wrap;html=1;align=center;fontSize=12;" vertex="1" parent="OC3763Bib24QmHlfgEVo-1">
          <mxGeometry x="1220" y="450" width="100" height="40" as="geometry" />
        </mxCell>
        <mxCell id="xJ4l-KhMbJF52oL8Yz-a-75" value="celular" style="ellipse;whiteSpace=wrap;html=1;align=center;fontSize=12;dashed=1;" vertex="1" parent="OC3763Bib24QmHlfgEVo-1">
          <mxGeometry x="1380" y="520" width="100" height="40" as="geometry" />
        </mxCell>
        <mxCell id="xJ4l-KhMbJF52oL8Yz-a-81" style="edgeStyle=none;rounded=0;orthogonalLoop=1;jettySize=auto;html=1;fontSize=12;endArrow=none;endFill=0;" edge="1" parent="OC3763Bib24QmHlfgEVo-1" source="xJ4l-KhMbJF52oL8Yz-a-78" target="xJ4l-KhMbJF52oL8Yz-a-80">
          <mxGeometry relative="1" as="geometry" />
        </mxCell>
        <mxCell id="xJ4l-KhMbJF52oL8Yz-a-78" value="eps" style="ellipse;shape=doubleEllipse;margin=3;whiteSpace=wrap;html=1;align=center;fontSize=12;" vertex="1" parent="OC3763Bib24QmHlfgEVo-1">
          <mxGeometry x="1270" y="100" width="100" height="40" as="geometry" />
        </mxCell>
        <mxCell id="xJ4l-KhMbJF52oL8Yz-a-80" value="tipoRegimen" style="ellipse;whiteSpace=wrap;html=1;align=center;fontSize=12;dashed=1;" vertex="1" parent="OC3763Bib24QmHlfgEVo-1">
          <mxGeometry x="1410" y="50" width="100" height="40" as="geometry" />
        </mxCell>
        <mxCell id="kWFVy5tIppyhTbkwzvY8-2" value="n" style="edgeLabel;html=1;align=center;verticalAlign=middle;resizable=0;points=[];fontSize=15;" vertex="1" connectable="0" parent="OC3763Bib24QmHlfgEVo-1">
          <mxGeometry x="-20.000000000000046" y="310" as="geometry">
            <mxPoint x="100" y="-20" as="offset" />
          </mxGeometry>
        </mxCell>
        <mxCell id="kWFVy5tIppyhTbkwzvY8-3" value="1" style="edgeLabel;html=1;align=center;verticalAlign=middle;resizable=0;points=[];fontSize=15;" vertex="1" connectable="0" parent="OC3763Bib24QmHlfgEVo-1">
          <mxGeometry x="-120.00000000000004" y="310" as="geometry">
            <mxPoint x="100" y="-20" as="offset" />
          </mxGeometry>
        </mxCell>
        <mxCell id="kWFVy5tIppyhTbkwzvY8-4" value="n" style="edgeLabel;html=1;align=center;verticalAlign=middle;resizable=0;points=[];fontSize=15;" vertex="1" connectable="0" parent="OC3763Bib24QmHlfgEVo-1">
          <mxGeometry x="109.99999999999994" y="310" as="geometry">
            <mxPoint x="100" y="-20" as="offset" />
          </mxGeometry>
        </mxCell>
        <mxCell id="kWFVy5tIppyhTbkwzvY8-5" value="1" style="edgeLabel;html=1;align=center;verticalAlign=middle;resizable=0;points=[];fontSize=15;" vertex="1" connectable="0" parent="OC3763Bib24QmHlfgEVo-1">
          <mxGeometry x="249.99999999999994" y="310" as="geometry">
            <mxPoint x="100" y="-20" as="offset" />
          </mxGeometry>
        </mxCell>
        <mxCell id="kWFVy5tIppyhTbkwzvY8-6" value="(n,m)" style="edgeLabel;html=1;align=center;verticalAlign=middle;resizable=0;points=[];fontSize=15;" vertex="1" connectable="0" parent="OC3763Bib24QmHlfgEVo-1">
          <mxGeometry x="49.99999999999994" y="360" as="geometry">
            <mxPoint x="100" y="-20" as="offset" />
          </mxGeometry>
        </mxCell>
        <mxCell id="kWFVy5tIppyhTbkwzvY8-7" value="n" style="edgeLabel;html=1;align=center;verticalAlign=middle;resizable=0;points=[];fontSize=15;" vertex="1" connectable="0" parent="OC3763Bib24QmHlfgEVo-1">
          <mxGeometry x="557" y="310" as="geometry">
            <mxPoint x="100" y="-20" as="offset" />
          </mxGeometry>
        </mxCell>
        <mxCell id="kWFVy5tIppyhTbkwzvY8-8" value="1" style="edgeLabel;html=1;align=center;verticalAlign=middle;resizable=0;points=[];fontSize=15;" vertex="1" connectable="0" parent="OC3763Bib24QmHlfgEVo-1">
          <mxGeometry x="369.99999999999994" y="310" as="geometry">
            <mxPoint x="100" y="-20" as="offset" />
          </mxGeometry>
        </mxCell>
        <mxCell id="kWFVy5tIppyhTbkwzvY8-9" value="n" style="edgeLabel;html=1;align=center;verticalAlign=middle;resizable=0;points=[];fontSize=15;" vertex="1" connectable="0" parent="OC3763Bib24QmHlfgEVo-1">
          <mxGeometry x="700" y="310" as="geometry">
            <mxPoint x="100" y="-20" as="offset" />
          </mxGeometry>
        </mxCell>
        <mxCell id="kWFVy5tIppyhTbkwzvY8-10" value="1" style="edgeLabel;html=1;align=center;verticalAlign=middle;resizable=0;points=[];fontSize=15;" vertex="1" connectable="0" parent="OC3763Bib24QmHlfgEVo-1">
          <mxGeometry x="890" y="310" as="geometry">
            <mxPoint x="100" y="-20" as="offset" />
          </mxGeometry>
        </mxCell>
        <mxCell id="kWFVy5tIppyhTbkwzvY8-11" value="(n,m)" style="edgeLabel;html=1;align=center;verticalAlign=middle;resizable=0;points=[];fontSize=15;" vertex="1" connectable="0" parent="OC3763Bib24QmHlfgEVo-1">
          <mxGeometry x="630" y="360" as="geometry">
            <mxPoint x="100" y="-20" as="offset" />
          </mxGeometry>
        </mxCell>
      </root>
    </mxGraphModel>
  </diagram>
  <diagram id="E8dlmk8UTCStBLw3wRD-" name="Diagrama caso de uso gestion consulta">
    <mxGraphModel dx="1422" dy="752" grid="1" gridSize="10" guides="1" tooltips="1" connect="1" arrows="1" fold="1" page="1" pageScale="1" pageWidth="827" pageHeight="1169" math="0" shadow="0">
      <root>
        <mxCell id="1_0XsinDyx6rq08LRmwD-0" />
        <mxCell id="1_0XsinDyx6rq08LRmwD-1" parent="1_0XsinDyx6rq08LRmwD-0" />
        <mxCell id="S6vsmFmqJQY59fPpGkdk-0" value="Usuario" style="shape=umlActor;verticalLabelPosition=bottom;verticalAlign=top;html=1;outlineConnect=0;direction=east;" parent="1_0XsinDyx6rq08LRmwD-1" vertex="1">
          <mxGeometry x="90" y="330" width="50" height="80" as="geometry" />
        </mxCell>
        <mxCell id="S6vsmFmqJQY59fPpGkdk-3" value="Diagrama caso de uso Gestion usuario" style="text;strokeColor=none;fillColor=none;html=1;fontSize=24;fontStyle=1;verticalAlign=middle;align=center;" parent="1_0XsinDyx6rq08LRmwD-1" vertex="1">
          <mxGeometry x="423" y="110" width="100" height="40" as="geometry" />
        </mxCell>
        <mxCell id="S6vsmFmqJQY59fPpGkdk-6" value="Inspirar" style="shape=umlFrame;whiteSpace=wrap;html=1;" parent="1_0XsinDyx6rq08LRmwD-1" vertex="1">
          <mxGeometry x="200" y="190" width="546" height="360" as="geometry" />
        </mxCell>
        <mxCell id="S6vsmFmqJQY59fPpGkdk-8" value="Registrar Usuario" style="ellipse;whiteSpace=wrap;html=1;" parent="1_0XsinDyx6rq08LRmwD-1" vertex="1">
          <mxGeometry x="290" y="250" width="140" height="70" as="geometry" />
        </mxCell>
        <mxCell id="S6vsmFmqJQY59fPpGkdk-12" value="Consultar usuario" style="ellipse;whiteSpace=wrap;html=1;" parent="1_0XsinDyx6rq08LRmwD-1" vertex="1">
          <mxGeometry x="290" y="390" width="140" height="70" as="geometry" />
        </mxCell>
        <mxCell id="S6vsmFmqJQY59fPpGkdk-13" value="Modificar Usuario" style="ellipse;whiteSpace=wrap;html=1;" parent="1_0XsinDyx6rq08LRmwD-1" vertex="1">
          <mxGeometry x="520" y="290" width="140" height="70" as="geometry" />
        </mxCell>
        <mxCell id="S6vsmFmqJQY59fPpGkdk-14" value="Inactivar Usuario" style="ellipse;whiteSpace=wrap;html=1;" parent="1_0XsinDyx6rq08LRmwD-1" vertex="1">
          <mxGeometry x="520" y="420" width="140" height="70" as="geometry" />
        </mxCell>
        <mxCell id="S6vsmFmqJQY59fPpGkdk-18" value="" style="endArrow=none;html=1;rounded=0;" parent="1_0XsinDyx6rq08LRmwD-1" source="S6vsmFmqJQY59fPpGkdk-8" target="S6vsmFmqJQY59fPpGkdk-0" edge="1">
          <mxGeometry width="50" height="50" relative="1" as="geometry">
            <mxPoint x="390" y="410" as="sourcePoint" />
            <mxPoint x="440" y="360" as="targetPoint" />
          </mxGeometry>
        </mxCell>
        <mxCell id="S6vsmFmqJQY59fPpGkdk-19" value="" style="endArrow=none;html=1;rounded=0;" parent="1_0XsinDyx6rq08LRmwD-1" source="S6vsmFmqJQY59fPpGkdk-12" target="S6vsmFmqJQY59fPpGkdk-0" edge="1">
          <mxGeometry width="50" height="50" relative="1" as="geometry">
            <mxPoint x="297.60442911453856" y="315.7336657667138" as="sourcePoint" />
            <mxPoint x="150" y="370.72052401746714" as="targetPoint" />
          </mxGeometry>
        </mxCell>
        <mxCell id="S6vsmFmqJQY59fPpGkdk-25" value="" style="endArrow=classic;html=1;rounded=0;dashed=1;" parent="1_0XsinDyx6rq08LRmwD-1" source="S6vsmFmqJQY59fPpGkdk-13" target="S6vsmFmqJQY59fPpGkdk-12" edge="1">
          <mxGeometry width="50" height="50" relative="1" as="geometry">
            <mxPoint x="390" y="410" as="sourcePoint" />
            <mxPoint x="440" y="360" as="targetPoint" />
          </mxGeometry>
        </mxCell>
        <mxCell id="S6vsmFmqJQY59fPpGkdk-27" value="Extends" style="edgeLabel;html=1;align=center;verticalAlign=middle;resizable=0;points=[];rotation=-30;" parent="S6vsmFmqJQY59fPpGkdk-25" vertex="1" connectable="0">
          <mxGeometry x="-0.3622" y="-1" relative="1" as="geometry">
            <mxPoint x="-17" y="6" as="offset" />
          </mxGeometry>
        </mxCell>
        <mxCell id="S6vsmFmqJQY59fPpGkdk-26" value="" style="endArrow=classic;html=1;rounded=0;dashed=1;" parent="1_0XsinDyx6rq08LRmwD-1" source="S6vsmFmqJQY59fPpGkdk-14" target="S6vsmFmqJQY59fPpGkdk-12" edge="1">
          <mxGeometry width="50" height="50" relative="1" as="geometry">
            <mxPoint x="547.1904619718355" y="357.97364083711113" as="sourcePoint" />
            <mxPoint x="422.82238655144283" y="412.03374497763343" as="targetPoint" />
          </mxGeometry>
        </mxCell>
        <mxCell id="S6vsmFmqJQY59fPpGkdk-28" value="Extends" style="edgeLabel;html=1;align=center;verticalAlign=middle;resizable=0;points=[];rotation=0;" parent="1_0XsinDyx6rq08LRmwD-1" vertex="1" connectable="0">
          <mxGeometry x="479.996299978253" y="439.9982991777061" as="geometry" />
        </mxCell>
      </root>
    </mxGraphModel>
  </diagram>
  <diagram id="mO8XG7aOiGfYFv8kxC-y" name="Diagrama caso de uso gestion usuario">
    <mxGraphModel dx="1422" dy="752" grid="1" gridSize="10" guides="1" tooltips="1" connect="1" arrows="1" fold="1" page="1" pageScale="1" pageWidth="827" pageHeight="1169" math="0" shadow="0">
      <root>
        <mxCell id="z9F5CMZ9ptng7onSX9sT-0" />
        <mxCell id="z9F5CMZ9ptng7onSX9sT-1" parent="z9F5CMZ9ptng7onSX9sT-0" />
        <mxCell id="U3dh9rVCj-rQCvyNJ90w-0" value="Psicólogo" style="shape=umlActor;verticalLabelPosition=bottom;verticalAlign=top;html=1;outlineConnect=0;direction=east;" vertex="1" parent="z9F5CMZ9ptng7onSX9sT-1">
          <mxGeometry x="90" y="330" width="50" height="80" as="geometry" />
        </mxCell>
        <mxCell id="U3dh9rVCj-rQCvyNJ90w-1" value="Diagrama caso de uso Gestionar Consulta" style="text;strokeColor=none;fillColor=none;html=1;fontSize=24;fontStyle=1;verticalAlign=middle;align=center;" vertex="1" parent="z9F5CMZ9ptng7onSX9sT-1">
          <mxGeometry x="423" y="110" width="100" height="40" as="geometry" />
        </mxCell>
        <mxCell id="U3dh9rVCj-rQCvyNJ90w-2" value="Inspirar" style="shape=umlFrame;whiteSpace=wrap;html=1;" vertex="1" parent="z9F5CMZ9ptng7onSX9sT-1">
          <mxGeometry x="200" y="190" width="546" height="360" as="geometry" />
        </mxCell>
        <mxCell id="U3dh9rVCj-rQCvyNJ90w-3" value="Registrar Consulta" style="ellipse;whiteSpace=wrap;html=1;" vertex="1" parent="z9F5CMZ9ptng7onSX9sT-1">
          <mxGeometry x="290" y="250" width="140" height="70" as="geometry" />
        </mxCell>
        <mxCell id="U3dh9rVCj-rQCvyNJ90w-4" value="Visualizar Consulta" style="ellipse;whiteSpace=wrap;html=1;" vertex="1" parent="z9F5CMZ9ptng7onSX9sT-1">
          <mxGeometry x="290" y="390" width="140" height="70" as="geometry" />
        </mxCell>
        <mxCell id="U3dh9rVCj-rQCvyNJ90w-5" value="Consultar historia Clinica" style="ellipse;whiteSpace=wrap;html=1;" vertex="1" parent="z9F5CMZ9ptng7onSX9sT-1">
          <mxGeometry x="550" y="390" width="140" height="70" as="geometry" />
        </mxCell>
        <mxCell id="U3dh9rVCj-rQCvyNJ90w-7" value="" style="endArrow=none;html=1;rounded=0;" edge="1" parent="z9F5CMZ9ptng7onSX9sT-1" source="U3dh9rVCj-rQCvyNJ90w-3" target="U3dh9rVCj-rQCvyNJ90w-0">
          <mxGeometry width="50" height="50" relative="1" as="geometry">
            <mxPoint x="390" y="410" as="sourcePoint" />
            <mxPoint x="440" y="360" as="targetPoint" />
          </mxGeometry>
        </mxCell>
        <mxCell id="U3dh9rVCj-rQCvyNJ90w-8" value="" style="endArrow=none;html=1;rounded=0;" edge="1" parent="z9F5CMZ9ptng7onSX9sT-1" source="U3dh9rVCj-rQCvyNJ90w-4" target="U3dh9rVCj-rQCvyNJ90w-0">
          <mxGeometry width="50" height="50" relative="1" as="geometry">
            <mxPoint x="297.60442911453856" y="315.7336657667138" as="sourcePoint" />
            <mxPoint x="150" y="370.72052401746714" as="targetPoint" />
          </mxGeometry>
        </mxCell>
        <mxCell id="U3dh9rVCj-rQCvyNJ90w-9" value="" style="endArrow=classic;html=1;rounded=0;dashed=1;" edge="1" parent="z9F5CMZ9ptng7onSX9sT-1" source="U3dh9rVCj-rQCvyNJ90w-5" target="U3dh9rVCj-rQCvyNJ90w-4">
          <mxGeometry width="50" height="50" relative="1" as="geometry">
            <mxPoint x="390" y="410" as="sourcePoint" />
            <mxPoint x="440" y="360" as="targetPoint" />
          </mxGeometry>
        </mxCell>
        <mxCell id="U3dh9rVCj-rQCvyNJ90w-10" value="Extends" style="edgeLabel;html=1;align=center;verticalAlign=middle;resizable=0;points=[];rotation=0;" vertex="1" connectable="0" parent="U3dh9rVCj-rQCvyNJ90w-9">
          <mxGeometry x="-0.3622" y="-1" relative="1" as="geometry">
            <mxPoint x="-17" y="1" as="offset" />
          </mxGeometry>
        </mxCell>
      </root>
    </mxGraphModel>
  </diagram>
</mxfile>
